<mxfile host="app.diagrams.net" agent="Mozilla/5.0 (Windows NT 10.0; Win64; x64) AppleWebKit/537.36 (KHTML, like Gecko) Chrome/138.0.0.0 Safari/537.36 OPR/122.0.0.0" version="28.2.5">
  <diagram name="Page-1" id="b5b7bab2-c9e2-2cf4-8b2a-24fd1a2a6d21">
    <mxGraphModel grid="1" page="1" gridSize="10" guides="1" tooltips="1" connect="1" arrows="1" fold="1" pageScale="1" pageWidth="827" pageHeight="1169" background="none" math="0" shadow="0">
      <root>
        <mxCell id="0" />
        <mxCell id="1" parent="0" />
        <mxCell id="6e0c8c40b5770093-33" value="" style="shape=folder;fontStyle=1;spacingTop=10;tabWidth=123;tabHeight=24;tabPosition=left;html=1;rounded=0;shadow=0;comic=0;labelBackgroundColor=none;strokeColor=#000000;strokeWidth=1;fillColor=#ffffff;fontFamily=Verdana;fontSize=10;fontColor=#000000;align=center;" vertex="1" parent="1">
          <mxGeometry x="150" y="150" width="1540" height="960" as="geometry" />
        </mxCell>
        <mxCell id="6e0c8c40b5770093-65" style="edgeStyle=none;rounded=0;html=1;dashed=1;labelBackgroundColor=none;startFill=0;endArrow=open;endFill=0;endSize=10;fontFamily=Verdana;fontSize=10;entryX=-0.003;entryY=0.411;entryPerimeter=0;" edge="1" parent="1" source="6e0c8c40b5770093-42" target="6e0c8c40b5770093-45">
          <mxGeometry relative="1" as="geometry" />
        </mxCell>
        <mxCell id="6e0c8c40b5770093-42" value="&lt;div&gt;&lt;font style=&quot;font-size: 18px;&quot;&gt;&amp;nbsp;- TelaCadastro&amp;nbsp; &amp;nbsp; &amp;nbsp;&amp;nbsp;&lt;/font&gt;&lt;/div&gt;&lt;div&gt;&lt;font style=&quot;font-size: 18px;&quot;&gt;&amp;nbsp;- TelaInscricao&amp;nbsp; &amp;nbsp; &amp;nbsp;&lt;/font&gt;&lt;/div&gt;&lt;div&gt;&lt;font style=&quot;font-size: 18px;&quot;&gt;&amp;nbsp;- TelaAlocacao&amp;nbsp; &amp;nbsp; &amp;nbsp;&amp;nbsp;&lt;/font&gt;&lt;/div&gt;&lt;div&gt;&lt;font style=&quot;font-size: 18px;&quot;&gt;&amp;nbsp;- TelaResultados&amp;nbsp; &amp;nbsp;&amp;nbsp;&lt;/font&gt;&lt;/div&gt;&lt;div&gt;&lt;font style=&quot;font-size: 18px;&quot;&gt;&amp;nbsp;- TelaRelatorios&amp;nbsp;&amp;nbsp;&lt;/font&gt;&lt;/div&gt;" style="shape=folder;fontStyle=1;spacingTop=10;tabWidth=50;tabHeight=17;tabPosition=left;html=1;rounded=0;shadow=0;comic=0;labelBackgroundColor=none;strokeColor=#000000;strokeWidth=1;fillColor=#ffffff;fontFamily=Verdana;fontSize=10;fontColor=#000000;align=left;" vertex="1" parent="1">
          <mxGeometry x="210" y="210" width="350" height="340" as="geometry" />
        </mxCell>
        <mxCell id="6e0c8c40b5770093-43" value="&lt;div&gt;&lt;font style=&quot;font-size: 18px;&quot;&gt;&amp;nbsp;- Atleta DAO&amp;nbsp; &amp;nbsp; &amp;nbsp; &amp;nbsp; &amp;nbsp;&amp;nbsp;&lt;/font&gt;&lt;/div&gt;&lt;div&gt;&lt;span style=&quot;font-size: 18px; background-color: transparent; color: light-dark(rgb(0, 0, 0), rgb(237, 237, 237));&quot;&gt;- Pais DAO&amp;nbsp; &amp;nbsp; &amp;nbsp; &amp;nbsp;&amp;nbsp;&lt;/span&gt;&lt;/div&gt;&lt;div&gt;&lt;font style=&quot;font-size: 18px;&quot;&gt;&amp;nbsp;- Modalidade DAO&amp;nbsp; &amp;nbsp; &amp;nbsp; &amp;nbsp;&amp;nbsp;&lt;/font&gt;&lt;/div&gt;&lt;div&gt;&lt;font style=&quot;font-size: 18px;&quot;&gt;&amp;nbsp;- Local DAO&amp;nbsp; &amp;nbsp; &amp;nbsp;&lt;/font&gt;&lt;/div&gt;&lt;div&gt;&lt;font style=&quot;font-size: 18px;&quot;&gt;&amp;nbsp;- Competicao DAO&amp;nbsp; &amp;nbsp; &amp;nbsp; &amp;nbsp;&amp;nbsp;&lt;/font&gt;&lt;/div&gt;&lt;div&gt;&lt;font style=&quot;font-size: 18px;&quot;&gt;&amp;nbsp;- Inscricao DAO&amp;nbsp; &amp;nbsp;&amp;nbsp;&lt;/font&gt;&lt;/div&gt;&lt;div&gt;&lt;font style=&quot;font-size: 18px;&quot;&gt;&amp;nbsp;- Resultado DAO&amp;nbsp;&lt;/font&gt;&lt;/div&gt;" style="shape=folder;fontStyle=1;spacingTop=10;tabWidth=50;tabHeight=17;tabPosition=left;html=1;rounded=0;shadow=0;comic=0;labelBackgroundColor=none;strokeColor=#000000;strokeWidth=1;fillColor=#ffffff;fontFamily=Verdana;fontSize=10;fontColor=#000000;align=left;" vertex="1" parent="1">
          <mxGeometry x="210" y="700" width="370" height="310" as="geometry" />
        </mxCell>
        <mxCell id="EKGgX9b1Em8gmcmegUpn-9" style="edgeStyle=orthogonalEdgeStyle;rounded=0;orthogonalLoop=1;jettySize=auto;html=1;exitX=0;exitY=0;exitDx=0;exitDy=161;exitPerimeter=0;" edge="1" parent="1" source="6e0c8c40b5770093-44" target="6e0c8c40b5770093-43">
          <mxGeometry relative="1" as="geometry" />
        </mxCell>
        <mxCell id="6e0c8c40b5770093-44" value="&lt;div&gt;&amp;nbsp;-&amp;nbsp;&lt;font style=&quot;font-size: 18px;&quot;&gt;Atleta&amp;nbsp; &amp;nbsp; &amp;nbsp; &amp;nbsp; &amp;nbsp; &amp;nbsp;&amp;nbsp;&lt;/font&gt;&lt;/div&gt;&lt;div&gt;&lt;span style=&quot;background-color: transparent; color: light-dark(rgb(0, 0, 0), rgb(237, 237, 237));&quot;&gt;&amp;nbsp;- &lt;/span&gt;&lt;font style=&quot;background-color: transparent; color: light-dark(rgb(0, 0, 0), rgb(237, 237, 237)); font-size: 18px;&quot;&gt;Pais&amp;nbsp; &amp;nbsp; &amp;nbsp; &amp;nbsp; &amp;nbsp; &amp;nbsp; &amp;nbsp;&amp;nbsp;&lt;/font&gt;&lt;/div&gt;&lt;div&gt;&amp;nbsp; - &lt;font style=&quot;font-size: 18px;&quot;&gt;Modalidade&amp;nbsp; &amp;nbsp; &amp;nbsp; &amp;nbsp;&amp;nbsp;&lt;/font&gt;&lt;/div&gt;&lt;div&gt;&amp;nbsp;- &lt;font style=&quot;font-size: 18px;&quot;&gt;Local&amp;nbsp; &amp;nbsp; &amp;nbsp; &amp;nbsp; &amp;nbsp; &amp;nbsp; &amp;nbsp;&lt;/font&gt;&lt;/div&gt;&lt;div&gt;&amp;nbsp; - &lt;font style=&quot;font-size: 18px;&quot;&gt;Competicao&amp;nbsp; &amp;nbsp; &amp;nbsp; &amp;nbsp;&amp;nbsp;&lt;/font&gt;&lt;/div&gt;&lt;div&gt;&amp;nbsp; - &lt;font style=&quot;font-size: 18px;&quot;&gt;Inscricao&amp;nbsp; &amp;nbsp; &amp;nbsp; &amp;nbsp; &amp;nbsp;&lt;/font&gt;&lt;/div&gt;&lt;div&gt;&lt;span style=&quot;background-color: transparent; color: light-dark(rgb(0, 0, 0), rgb(237, 237, 237));&quot;&gt;&amp;nbsp;- &lt;/span&gt;&lt;font style=&quot;background-color: transparent; color: light-dark(rgb(0, 0, 0), rgb(237, 237, 237)); font-size: 18px;&quot;&gt;Resultado&amp;nbsp; &amp;nbsp;&amp;nbsp;&lt;/font&gt;&lt;/div&gt;" style="shape=folder;fontStyle=1;spacingTop=10;tabWidth=50;tabHeight=17;tabPosition=left;html=1;rounded=0;shadow=0;comic=0;labelBackgroundColor=none;strokeColor=#000000;strokeWidth=1;fillColor=#ffffff;fontFamily=Verdana;fontSize=10;fontColor=#000000;align=left;" vertex="1" parent="1">
          <mxGeometry x="720" y="690" width="380" height="305" as="geometry" />
        </mxCell>
        <mxCell id="6e0c8c40b5770093-45" value="&lt;div&gt;&amp;nbsp;- &lt;font style=&quot;font-size: 18px;&quot;&gt;CadastroCompeticao&lt;/font&gt;&lt;/div&gt;&lt;div&gt;&amp;nbsp;- &lt;font style=&quot;font-size: 18px;&quot;&gt;InscricaoAtleta&amp;nbsp; &amp;nbsp;&lt;/font&gt;&lt;/div&gt;&lt;div&gt;&amp;nbsp;- &lt;font style=&quot;font-size: 18px;&quot;&gt;AlocacaoLocal&amp;nbsp; &amp;nbsp; &amp;nbsp;&lt;/font&gt;&lt;/div&gt;&lt;div&gt;&amp;nbsp;- &lt;font style=&quot;font-size: 18px;&quot;&gt;ControleResultados&lt;/font&gt;&lt;/div&gt;&lt;div&gt;&amp;nbsp;- &lt;font style=&quot;font-size: 18px;&quot;&gt;RelatorioMedalhas&amp;nbsp;&lt;/font&gt;&lt;/div&gt;" style="shape=folder;fontStyle=1;spacingTop=10;tabWidth=50;tabHeight=17;tabPosition=left;html=1;rounded=0;shadow=0;comic=0;labelBackgroundColor=none;strokeColor=#000000;strokeWidth=1;fillColor=#ffffff;fontFamily=Verdana;fontSize=10;fontColor=#000000;align=left;" vertex="1" parent="1">
          <mxGeometry x="760" y="230" width="350" height="340" as="geometry" />
        </mxCell>
        <mxCell id="EKGgX9b1Em8gmcmegUpn-3" value="&lt;font style=&quot;font-size: 18px;&quot;&gt;System&lt;/font&gt;" style="text;html=1;align=center;verticalAlign=middle;whiteSpace=wrap;rounded=0;" vertex="1" parent="1">
          <mxGeometry x="160" y="150" width="60" height="30" as="geometry" />
        </mxCell>
        <mxCell id="EKGgX9b1Em8gmcmegUpn-4" value="&lt;font style=&quot;font-size: 18px;&quot;&gt;Apresentacao&amp;nbsp; &amp;nbsp; &amp;nbsp;&lt;/font&gt;" style="text;html=1;align=center;verticalAlign=middle;whiteSpace=wrap;rounded=0;" vertex="1" parent="1">
          <mxGeometry x="300" y="210" width="60" height="30" as="geometry" />
        </mxCell>
        <mxCell id="EKGgX9b1Em8gmcmegUpn-6" value="&lt;font style=&quot;font-size: 18px;&quot;&gt;ServiÃ§os&lt;/font&gt;" style="text;html=1;align=center;verticalAlign=middle;whiteSpace=wrap;rounded=0;" vertex="1" parent="1">
          <mxGeometry x="827" y="220" width="60" height="30" as="geometry" />
        </mxCell>
        <mxCell id="EKGgX9b1Em8gmcmegUpn-8" style="edgeStyle=orthogonalEdgeStyle;rounded=0;orthogonalLoop=1;jettySize=auto;html=1;exitX=0.5;exitY=1;exitDx=0;exitDy=0;exitPerimeter=0;entryX=0;entryY=0;entryDx=215;entryDy=17;entryPerimeter=0;" edge="1" parent="1" source="6e0c8c40b5770093-45" target="6e0c8c40b5770093-44">
          <mxGeometry relative="1" as="geometry" />
        </mxCell>
        <mxCell id="EKGgX9b1Em8gmcmegUpn-10" value="&lt;font style=&quot;font-size: 18px;&quot;&gt;Dominio&lt;/font&gt;" style="text;html=1;align=center;verticalAlign=middle;whiteSpace=wrap;rounded=0;" vertex="1" parent="1">
          <mxGeometry x="780" y="675" width="60" height="30" as="geometry" />
        </mxCell>
        <mxCell id="EKGgX9b1Em8gmcmegUpn-11" value="&lt;font style=&quot;font-size: 18px;&quot;&gt;Persistencia&lt;/font&gt;" style="text;html=1;align=center;verticalAlign=middle;whiteSpace=wrap;rounded=0;" vertex="1" parent="1">
          <mxGeometry x="290" y="690" width="60" height="30" as="geometry" />
        </mxCell>
        <mxCell id="EKGgX9b1Em8gmcmegUpn-12" value="&lt;div&gt;&lt;font style=&quot;font-size: 18px;&quot;&gt;&amp;nbsp;- RelatorioMedalhas&amp;nbsp; &amp;nbsp; &amp;nbsp; &amp;nbsp; &amp;nbsp;&lt;/font&gt;&lt;/div&gt;&lt;div&gt;&lt;span style=&quot;font-size: 18px; background-color: transparent; color: light-dark(rgb(0, 0, 0), rgb(237, 237, 237));&quot;&gt;-&amp;nbsp; RelatorioPais&amp;nbsp; &amp;nbsp; &amp;nbsp;&amp;nbsp;&lt;/span&gt;&lt;/div&gt;&lt;div&gt;&lt;span style=&quot;font-size: 18px; background-color: transparent; color: light-dark(rgb(0, 0, 0), rgb(237, 237, 237));&quot;&gt;&amp;nbsp;&lt;/span&gt;&lt;/div&gt;" style="shape=folder;fontStyle=1;spacingTop=10;tabWidth=50;tabHeight=17;tabPosition=left;html=1;rounded=0;shadow=0;comic=0;labelBackgroundColor=none;strokeColor=#000000;strokeWidth=1;fillColor=#ffffff;fontFamily=Verdana;fontSize=10;fontColor=#000000;align=left;" vertex="1" parent="1">
          <mxGeometry x="1230" y="475" width="370" height="310" as="geometry" />
        </mxCell>
        <mxCell id="EKGgX9b1Em8gmcmegUpn-15" value="&lt;font style=&quot;font-size: 18px;&quot;&gt;RelatÃ³rios&lt;/font&gt;" style="text;html=1;align=center;verticalAlign=middle;whiteSpace=wrap;rounded=0;" vertex="1" parent="1">
          <mxGeometry x="1270" y="460" width="130" height="30" as="geometry" />
        </mxCell>
      </root>
    </mxGraphModel>
  </diagram>
</mxfile>
